<mxfile host="app.diagrams.net" agent="Mozilla/5.0 (Windows NT 10.0; Win64; x64) AppleWebKit/537.36 (KHTML, like Gecko) Chrome/127.0.0.0 Safari/537.36" version="24.7.7">
  <diagram name="第 1 页" id="uH8sp2bWhxz_5yb2CKc5">
    <mxGraphModel dx="678" dy="371" grid="0" gridSize="10" guides="1" tooltips="1" connect="1" arrows="1" fold="1" page="1" pageScale="1" pageWidth="827" pageHeight="1169" background="#ffffff" math="0" shadow="0">
      <root>
        <mxCell id="0" />
        <mxCell id="1" parent="0" />
        <mxCell id="_M65vFGT0WVzF0H-Nivc-4" value="" style="rounded=1;whiteSpace=wrap;html=1;fillColor=#94f58f;strokeColor=#82b366;" vertex="1" parent="1">
          <mxGeometry x="170" y="70" width="510" height="40" as="geometry" />
        </mxCell>
        <mxCell id="_M65vFGT0WVzF0H-Nivc-6" style="edgeStyle=orthogonalEdgeStyle;rounded=0;orthogonalLoop=1;jettySize=auto;html=1;exitX=0.5;exitY=1;exitDx=0;exitDy=0;" edge="1" parent="1" source="_M65vFGT0WVzF0H-Nivc-4" target="_M65vFGT0WVzF0H-Nivc-4">
          <mxGeometry relative="1" as="geometry" />
        </mxCell>
        <mxCell id="_M65vFGT0WVzF0H-Nivc-8" value="" style="endArrow=none;dashed=1;html=1;rounded=0;" edge="1" parent="1">
          <mxGeometry width="50" height="50" relative="1" as="geometry">
            <mxPoint x="80" y="120" as="sourcePoint" />
            <mxPoint x="680" y="120" as="targetPoint" />
          </mxGeometry>
        </mxCell>
        <mxCell id="_M65vFGT0WVzF0H-Nivc-12" value="" style="rounded=1;whiteSpace=wrap;html=1;fillColor=#ffe6cc;strokeColor=#d79b00;" vertex="1" parent="1">
          <mxGeometry x="170" y="130" width="340" height="90" as="geometry" />
        </mxCell>
        <mxCell id="_M65vFGT0WVzF0H-Nivc-13" value="合约部署" style="rounded=0;whiteSpace=wrap;html=1;" vertex="1" parent="1">
          <mxGeometry x="220" y="135" width="70" height="30" as="geometry" />
        </mxCell>
        <mxCell id="_M65vFGT0WVzF0H-Nivc-14" value="" style="endArrow=none;dashed=1;html=1;rounded=0;" edge="1" parent="1">
          <mxGeometry width="50" height="50" relative="1" as="geometry">
            <mxPoint x="80" y="234" as="sourcePoint" />
            <mxPoint x="680" y="234" as="targetPoint" />
          </mxGeometry>
        </mxCell>
        <mxCell id="_M65vFGT0WVzF0H-Nivc-16" value="" style="endArrow=none;dashed=1;html=1;rounded=0;" edge="1" parent="1">
          <mxGeometry width="50" height="50" relative="1" as="geometry">
            <mxPoint x="80" y="360" as="sourcePoint" />
            <mxPoint x="680" y="360" as="targetPoint" />
          </mxGeometry>
        </mxCell>
        <mxCell id="_M65vFGT0WVzF0H-Nivc-18" value="" style="endArrow=none;dashed=1;html=1;rounded=0;" edge="1" parent="1">
          <mxGeometry width="50" height="50" relative="1" as="geometry">
            <mxPoint x="80" y="490" as="sourcePoint" />
            <mxPoint x="680" y="490" as="targetPoint" />
          </mxGeometry>
        </mxCell>
        <mxCell id="_M65vFGT0WVzF0H-Nivc-24" value="合约测试" style="rounded=0;whiteSpace=wrap;html=1;" vertex="1" parent="1">
          <mxGeometry x="310" y="135" width="70" height="30" as="geometry" />
        </mxCell>
        <mxCell id="_M65vFGT0WVzF0H-Nivc-25" value="合约管理" style="rounded=0;whiteSpace=wrap;html=1;" vertex="1" parent="1">
          <mxGeometry x="400" y="135" width="70" height="30" as="geometry" />
        </mxCell>
        <mxCell id="_M65vFGT0WVzF0H-Nivc-30" value="创建档案链" style="rounded=0;whiteSpace=wrap;html=1;" vertex="1" parent="1">
          <mxGeometry x="220" y="180" width="70" height="30" as="geometry" />
        </mxCell>
        <mxCell id="_M65vFGT0WVzF0H-Nivc-31" value="查询档案链" style="rounded=0;whiteSpace=wrap;html=1;" vertex="1" parent="1">
          <mxGeometry x="310" y="180" width="70" height="30" as="geometry" />
        </mxCell>
        <mxCell id="_M65vFGT0WVzF0H-Nivc-32" value="数据验证" style="rounded=0;whiteSpace=wrap;html=1;" vertex="1" parent="1">
          <mxGeometry x="400" y="180" width="70" height="30" as="geometry" />
        </mxCell>
        <mxCell id="_M65vFGT0WVzF0H-Nivc-36" value="&lt;font style=&quot;font-size: 14px;&quot;&gt;日&lt;/font&gt;&lt;div style=&quot;font-size: 14px;&quot;&gt;&lt;font style=&quot;font-size: 14px;&quot;&gt;志&lt;/font&gt;&lt;/div&gt;&lt;div style=&quot;font-size: 14px;&quot;&gt;&lt;font style=&quot;font-size: 14px;&quot;&gt;记&lt;/font&gt;&lt;/div&gt;&lt;div style=&quot;font-size: 14px;&quot;&gt;&lt;font style=&quot;font-size: 14px;&quot;&gt;录&lt;/font&gt;&lt;/div&gt;" style="rounded=0;whiteSpace=wrap;html=1;fillColor=#99FF99;strokeColor=#36393d;" vertex="1" parent="1">
          <mxGeometry x="530" y="130" width="40" height="360" as="geometry" />
        </mxCell>
        <mxCell id="_M65vFGT0WVzF0H-Nivc-37" value="&lt;font style=&quot;font-size: 14px;&quot;&gt;权&lt;/font&gt;&lt;div style=&quot;font-size: 14px;&quot;&gt;&lt;font style=&quot;font-size: 14px;&quot;&gt;限&lt;/font&gt;&lt;/div&gt;&lt;div style=&quot;font-size: 14px;&quot;&gt;&lt;font style=&quot;font-size: 14px;&quot;&gt;控&lt;/font&gt;&lt;/div&gt;&lt;div style=&quot;font-size: 14px;&quot;&gt;&lt;font style=&quot;font-size: 14px;&quot;&gt;制&lt;/font&gt;&lt;/div&gt;&lt;div style=&quot;font-size: 14px;&quot;&gt;&lt;br&gt;&lt;/div&gt;&lt;div style=&quot;font-size: 14px;&quot;&gt;&lt;br&gt;&lt;/div&gt;&lt;div style=&quot;font-size: 14px;&quot;&gt;&lt;br&gt;&lt;/div&gt;&lt;div style=&quot;font-size: 14px;&quot;&gt;&lt;br&gt;&lt;/div&gt;&lt;div style=&quot;font-size: 14px;&quot;&gt;证&lt;/div&gt;&lt;div style=&quot;font-size: 14px;&quot;&gt;书&lt;/div&gt;&lt;div style=&quot;font-size: 14px;&quot;&gt;管&lt;/div&gt;&lt;div style=&quot;font-size: 14px;&quot;&gt;理&lt;/div&gt;" style="rounded=0;whiteSpace=wrap;html=1;fillColor=#F8E0DF;strokeColor=#b85450;" vertex="1" parent="1">
          <mxGeometry x="590" y="130" width="40" height="360" as="geometry" />
        </mxCell>
        <mxCell id="_M65vFGT0WVzF0H-Nivc-38" value="&lt;font style=&quot;font-size: 14px;&quot;&gt;服&lt;/font&gt;&lt;div style=&quot;font-size: 14px;&quot;&gt;&lt;font style=&quot;font-size: 14px;&quot;&gt;务&lt;/font&gt;&lt;/div&gt;&lt;div style=&quot;font-size: 14px;&quot;&gt;&lt;font style=&quot;font-size: 14px;&quot;&gt;监&lt;/font&gt;&lt;/div&gt;&lt;div style=&quot;font-size: 14px;&quot;&gt;&lt;font style=&quot;font-size: 14px;&quot;&gt;控&lt;/font&gt;&lt;/div&gt;" style="rounded=0;whiteSpace=wrap;html=1;fillColor=#f8cecc;strokeColor=#b85450;" vertex="1" parent="1">
          <mxGeometry x="650" y="130" width="40" height="530" as="geometry" />
        </mxCell>
        <mxCell id="_M65vFGT0WVzF0H-Nivc-39" value="" style="rounded=1;whiteSpace=wrap;html=1;fillColor=#fff2cc;strokeColor=#d6b656;" vertex="1" parent="1">
          <mxGeometry x="170" y="250" width="340" height="90" as="geometry" />
        </mxCell>
        <mxCell id="_M65vFGT0WVzF0H-Nivc-40" value="BR-Raft实施" style="rounded=0;whiteSpace=wrap;html=1;" vertex="1" parent="1">
          <mxGeometry x="220" y="255" width="70" height="30" as="geometry" />
        </mxCell>
        <mxCell id="_M65vFGT0WVzF0H-Nivc-41" value="节点管理" style="rounded=0;whiteSpace=wrap;html=1;" vertex="1" parent="1">
          <mxGeometry x="310" y="255" width="70" height="30" as="geometry" />
        </mxCell>
        <mxCell id="_M65vFGT0WVzF0H-Nivc-42" value="共识监控" style="rounded=0;whiteSpace=wrap;html=1;" vertex="1" parent="1">
          <mxGeometry x="400" y="255" width="70" height="30" as="geometry" />
        </mxCell>
        <mxCell id="_M65vFGT0WVzF0H-Nivc-43" value="区块验证" style="rounded=0;whiteSpace=wrap;html=1;" vertex="1" parent="1">
          <mxGeometry x="220" y="300" width="70" height="30" as="geometry" />
        </mxCell>
        <mxCell id="_M65vFGT0WVzF0H-Nivc-44" value="链同步" style="rounded=0;whiteSpace=wrap;html=1;" vertex="1" parent="1">
          <mxGeometry x="310" y="300" width="70" height="30" as="geometry" />
        </mxCell>
        <mxCell id="_M65vFGT0WVzF0H-Nivc-45" value="安全保障" style="rounded=0;whiteSpace=wrap;html=1;" vertex="1" parent="1">
          <mxGeometry x="400" y="300" width="70" height="30" as="geometry" />
        </mxCell>
        <mxCell id="_M65vFGT0WVzF0H-Nivc-46" value="&lt;font style=&quot;font-size: 15px;&quot;&gt;应用层&lt;/font&gt;" style="text;html=1;align=center;verticalAlign=middle;whiteSpace=wrap;rounded=0;" vertex="1" parent="1">
          <mxGeometry x="80" y="75" width="60" height="30" as="geometry" />
        </mxCell>
        <mxCell id="_M65vFGT0WVzF0H-Nivc-47" value="身份验证" style="rounded=0;whiteSpace=wrap;html=1;" vertex="1" parent="1">
          <mxGeometry x="220" y="75" width="70" height="30" as="geometry" />
        </mxCell>
        <mxCell id="_M65vFGT0WVzF0H-Nivc-48" value="移动应用" style="rounded=0;whiteSpace=wrap;html=1;" vertex="1" parent="1">
          <mxGeometry x="310" y="75" width="70" height="30" as="geometry" />
        </mxCell>
        <mxCell id="_M65vFGT0WVzF0H-Nivc-49" value="Web门户" style="rounded=0;whiteSpace=wrap;html=1;" vertex="1" parent="1">
          <mxGeometry x="400" y="75" width="70" height="30" as="geometry" />
        </mxCell>
        <mxCell id="_M65vFGT0WVzF0H-Nivc-50" value="API接口" style="rounded=0;whiteSpace=wrap;html=1;" vertex="1" parent="1">
          <mxGeometry x="490" y="75" width="70" height="30" as="geometry" />
        </mxCell>
        <mxCell id="_M65vFGT0WVzF0H-Nivc-51" value="会话管理" style="rounded=0;whiteSpace=wrap;html=1;" vertex="1" parent="1">
          <mxGeometry x="580" y="75" width="70" height="30" as="geometry" />
        </mxCell>
        <mxCell id="_M65vFGT0WVzF0H-Nivc-52" value="" style="rounded=1;whiteSpace=wrap;html=1;fillColor=#dae8fc;strokeColor=#6c8ebf;" vertex="1" parent="1">
          <mxGeometry x="170" y="380" width="340" height="90" as="geometry" />
        </mxCell>
        <mxCell id="_M65vFGT0WVzF0H-Nivc-53" value="P2P网络" style="rounded=0;whiteSpace=wrap;html=1;" vertex="1" parent="1">
          <mxGeometry x="220" y="385" width="70" height="30" as="geometry" />
        </mxCell>
        <mxCell id="_M65vFGT0WVzF0H-Nivc-54" value="消息路由" style="rounded=0;whiteSpace=wrap;html=1;" vertex="1" parent="1">
          <mxGeometry x="310" y="385" width="70" height="30" as="geometry" />
        </mxCell>
        <mxCell id="_M65vFGT0WVzF0H-Nivc-55" value="传输加密" style="rounded=0;whiteSpace=wrap;html=1;" vertex="1" parent="1">
          <mxGeometry x="400" y="385" width="70" height="30" as="geometry" />
        </mxCell>
        <mxCell id="_M65vFGT0WVzF0H-Nivc-56" value="安全策略" style="rounded=0;whiteSpace=wrap;html=1;" vertex="1" parent="1">
          <mxGeometry x="220" y="430" width="70" height="30" as="geometry" />
        </mxCell>
        <mxCell id="_M65vFGT0WVzF0H-Nivc-57" value="私钥托管" style="rounded=0;whiteSpace=wrap;html=1;" vertex="1" parent="1">
          <mxGeometry x="310" y="430" width="70" height="30" as="geometry" />
        </mxCell>
        <mxCell id="_M65vFGT0WVzF0H-Nivc-58" value="协议转换" style="rounded=0;whiteSpace=wrap;html=1;" vertex="1" parent="1">
          <mxGeometry x="400" y="430" width="70" height="30" as="geometry" />
        </mxCell>
        <mxCell id="_M65vFGT0WVzF0H-Nivc-59" value="&lt;font style=&quot;font-size: 15px;&quot;&gt;合约层&lt;/font&gt;" style="text;html=1;align=center;verticalAlign=middle;whiteSpace=wrap;rounded=0;" vertex="1" parent="1">
          <mxGeometry x="80" y="160" width="60" height="30" as="geometry" />
        </mxCell>
        <mxCell id="_M65vFGT0WVzF0H-Nivc-60" value="&lt;font style=&quot;font-size: 15px;&quot;&gt;共识层&lt;/font&gt;" style="text;html=1;align=center;verticalAlign=middle;whiteSpace=wrap;rounded=0;" vertex="1" parent="1">
          <mxGeometry x="80" y="280" width="60" height="30" as="geometry" />
        </mxCell>
        <mxCell id="_M65vFGT0WVzF0H-Nivc-61" value="&lt;font style=&quot;font-size: 15px;&quot;&gt;网络层&lt;/font&gt;" style="text;html=1;align=center;verticalAlign=middle;whiteSpace=wrap;rounded=0;" vertex="1" parent="1">
          <mxGeometry x="80" y="410" width="60" height="30" as="geometry" />
        </mxCell>
        <mxCell id="_M65vFGT0WVzF0H-Nivc-64" value="" style="rounded=1;whiteSpace=wrap;html=1;fillColor=#e1d5e7;strokeColor=#9673a6;" vertex="1" parent="1">
          <mxGeometry x="170" y="510" width="470" height="90" as="geometry" />
        </mxCell>
        <mxCell id="_M65vFGT0WVzF0H-Nivc-66" value="区块链数据缓存&lt;div&gt;(交易、区块、运行数据)&lt;/div&gt;" style="rounded=0;whiteSpace=wrap;html=1;" vertex="1" parent="1">
          <mxGeometry x="310" y="522.5" width="140" height="65" as="geometry" />
        </mxCell>
        <mxCell id="_M65vFGT0WVzF0H-Nivc-67" value="区块链数据存储&lt;div&gt;(K-V数据库、区块链式存储)&lt;/div&gt;" style="rounded=0;whiteSpace=wrap;html=1;" vertex="1" parent="1">
          <mxGeometry x="475" y="522.5" width="150" height="65" as="geometry" />
        </mxCell>
        <mxCell id="_M65vFGT0WVzF0H-Nivc-71" value="&lt;font style=&quot;font-size: 15px;&quot;&gt;数据存储层&lt;/font&gt;" style="text;html=1;align=center;verticalAlign=middle;whiteSpace=wrap;rounded=0;" vertex="1" parent="1">
          <mxGeometry x="80" y="540" width="60" height="30" as="geometry" />
        </mxCell>
        <mxCell id="_M65vFGT0WVzF0H-Nivc-72" value="MySQL" style="shape=cylinder3;whiteSpace=wrap;html=1;boundedLbl=1;backgroundOutline=1;size=15;" vertex="1" parent="1">
          <mxGeometry x="220" y="515" width="60" height="80" as="geometry" />
        </mxCell>
        <mxCell id="_M65vFGT0WVzF0H-Nivc-73" value="" style="endArrow=none;dashed=1;html=1;rounded=0;" edge="1" parent="1">
          <mxGeometry width="50" height="50" relative="1" as="geometry">
            <mxPoint x="80" y="610" as="sourcePoint" />
            <mxPoint x="644" y="610" as="targetPoint" />
          </mxGeometry>
        </mxCell>
        <mxCell id="_M65vFGT0WVzF0H-Nivc-75" value="&lt;font style=&quot;font-size: 15px;&quot;&gt;运行环境&lt;/font&gt;" style="text;html=1;align=center;verticalAlign=middle;whiteSpace=wrap;rounded=0;" vertex="1" parent="1">
          <mxGeometry x="80" y="630" width="70" height="30" as="geometry" />
        </mxCell>
        <mxCell id="_M65vFGT0WVzF0H-Nivc-76" value="" style="endArrow=none;dashed=1;html=1;rounded=0;" edge="1" parent="1">
          <mxGeometry width="50" height="50" relative="1" as="geometry">
            <mxPoint x="80" y="680" as="sourcePoint" />
            <mxPoint x="680" y="680" as="targetPoint" />
          </mxGeometry>
        </mxCell>
        <mxCell id="_M65vFGT0WVzF0H-Nivc-77" value="" style="rounded=1;whiteSpace=wrap;html=1;fillColor=#dae8fc;strokeColor=#6c8ebf;" vertex="1" parent="1">
          <mxGeometry x="170" y="625" width="470" height="40" as="geometry" />
        </mxCell>
        <mxCell id="_M65vFGT0WVzF0H-Nivc-78" value="JDK 1.8" style="rounded=0;whiteSpace=wrap;html=1;" vertex="1" parent="1">
          <mxGeometry x="220" y="630" width="70" height="30" as="geometry" />
        </mxCell>
        <mxCell id="_M65vFGT0WVzF0H-Nivc-79" value="云服务器" style="rounded=0;whiteSpace=wrap;html=1;" vertex="1" parent="1">
          <mxGeometry x="310" y="630" width="70" height="30" as="geometry" />
        </mxCell>
        <mxCell id="_M65vFGT0WVzF0H-Nivc-80" value="&lt;p class=&quot;MsoNormal&quot;&gt;&lt;span style=&quot;font-family: &amp;quot;Times New Roman&amp;quot;;&quot;&gt;&lt;font style=&quot;font-size: 12px;&quot;&gt;FISCO BCOS&lt;/font&gt;&lt;/span&gt;&lt;/p&gt;" style="rounded=0;whiteSpace=wrap;html=1;" vertex="1" parent="1">
          <mxGeometry x="400" y="630" width="70" height="30" as="geometry" />
        </mxCell>
        <mxCell id="_M65vFGT0WVzF0H-Nivc-81" value="Redis" style="rounded=0;whiteSpace=wrap;html=1;" vertex="1" parent="1">
          <mxGeometry x="490" y="630" width="70" height="30" as="geometry" />
        </mxCell>
        <mxCell id="_M65vFGT0WVzF0H-Nivc-83" value="......" style="rounded=0;whiteSpace=wrap;html=1;" vertex="1" parent="1">
          <mxGeometry x="580" y="630" width="40" height="30" as="geometry" />
        </mxCell>
      </root>
    </mxGraphModel>
  </diagram>
</mxfile>
